<mxfile host="app.diagrams.net" modified="2021-07-17T04:11:26.759Z" agent="5.0 (Macintosh; Intel Mac OS X 10_15_7) AppleWebKit/537.36 (KHTML, like Gecko) Chrome/91.0.4472.114 Safari/537.36" etag="CIGNRMzPOZvpWi99qRuq" version="14.9.0" type="github">
  <diagram id="S6UUepRFk-gCWM6lfWPZ" name="Page-1">
    <mxGraphModel dx="786" dy="443" grid="1" gridSize="10" guides="1" tooltips="1" connect="1" arrows="1" fold="1" page="1" pageScale="1" pageWidth="827" pageHeight="1169" math="0" shadow="0">
      <root>
        <mxCell id="0" />
        <mxCell id="1" parent="0" />
        <mxCell id="CYRStoh-47A9DED7U8ka-8" value="" style="rounded=1;whiteSpace=wrap;html=1;" vertex="1" parent="1">
          <mxGeometry x="370" y="180" width="220" height="60" as="geometry" />
        </mxCell>
        <mxCell id="CYRStoh-47A9DED7U8ka-1" value="" style="whiteSpace=wrap;html=1;aspect=fixed;" vertex="1" parent="1">
          <mxGeometry x="120" y="80" width="210" height="210" as="geometry" />
        </mxCell>
        <mxCell id="CYRStoh-47A9DED7U8ka-14" value="" style="edgeStyle=orthogonalEdgeStyle;rounded=0;orthogonalLoop=1;jettySize=auto;html=1;" edge="1" parent="1" source="CYRStoh-47A9DED7U8ka-2" target="CYRStoh-47A9DED7U8ka-6">
          <mxGeometry relative="1" as="geometry" />
        </mxCell>
        <mxCell id="CYRStoh-47A9DED7U8ka-2" value="" style="shape=process;whiteSpace=wrap;html=1;backgroundOutline=1;" vertex="1" parent="1">
          <mxGeometry x="120" y="180" width="210" height="60" as="geometry" />
        </mxCell>
        <mxCell id="CYRStoh-47A9DED7U8ka-3" value="News" style="text;strokeColor=none;fillColor=none;html=1;fontSize=24;fontStyle=1;verticalAlign=middle;align=center;" vertex="1" parent="1">
          <mxGeometry x="165" y="190" width="100" height="40" as="geometry" />
        </mxCell>
        <mxCell id="CYRStoh-47A9DED7U8ka-4" value="" style="endArrow=classic;startArrow=classic;html=1;" edge="1" parent="1">
          <mxGeometry width="50" height="50" relative="1" as="geometry">
            <mxPoint x="250" y="209.5" as="sourcePoint" />
            <mxPoint x="370" y="210" as="targetPoint" />
          </mxGeometry>
        </mxCell>
        <mxCell id="CYRStoh-47A9DED7U8ka-6" value="microCMS" style="text;strokeColor=none;fillColor=none;html=1;fontSize=24;fontStyle=1;verticalAlign=middle;align=center;" vertex="1" parent="1">
          <mxGeometry x="430" y="190" width="100" height="40" as="geometry" />
        </mxCell>
        <mxCell id="CYRStoh-47A9DED7U8ka-7" value="" style="endArrow=classic;startArrow=classic;html=1;entryX=0.545;entryY=0;entryDx=0;entryDy=0;entryPerimeter=0;" edge="1" parent="1" target="CYRStoh-47A9DED7U8ka-9">
          <mxGeometry width="50" height="50" relative="1" as="geometry">
            <mxPoint x="490" y="240" as="sourcePoint" />
            <mxPoint x="490" y="290" as="targetPoint" />
            <Array as="points">
              <mxPoint x="490" y="270" />
            </Array>
          </mxGeometry>
        </mxCell>
        <mxCell id="CYRStoh-47A9DED7U8ka-9" value="" style="rounded=1;whiteSpace=wrap;html=1;" vertex="1" parent="1">
          <mxGeometry x="370" y="320" width="220" height="60" as="geometry" />
        </mxCell>
        <mxCell id="CYRStoh-47A9DED7U8ka-10" value="Nodejs(heroku?)" style="text;strokeColor=none;fillColor=none;html=1;fontSize=24;fontStyle=1;verticalAlign=middle;align=center;" vertex="1" parent="1">
          <mxGeometry x="430" y="330" width="100" height="40" as="geometry" />
        </mxCell>
        <mxCell id="CYRStoh-47A9DED7U8ka-11" value="ポジティブギバーズHP" style="text;html=1;strokeColor=none;fillColor=none;align=center;verticalAlign=middle;whiteSpace=wrap;rounded=0;" vertex="1" parent="1">
          <mxGeometry x="140" y="90" width="150" height="20" as="geometry" />
        </mxCell>
        <mxCell id="CYRStoh-47A9DED7U8ka-12" value="" style="shape=process;whiteSpace=wrap;html=1;backgroundOutline=1;" vertex="1" parent="1">
          <mxGeometry x="120" y="240" width="210" height="50" as="geometry" />
        </mxCell>
        <mxCell id="CYRStoh-47A9DED7U8ka-13" value="&lt;font style=&quot;font-size: 12px&quot;&gt;ハロヒロログイン&lt;/font&gt;" style="text;strokeColor=none;fillColor=none;html=1;fontSize=24;fontStyle=1;verticalAlign=middle;align=center;" vertex="1" parent="1">
          <mxGeometry x="175" y="245" width="100" height="40" as="geometry" />
        </mxCell>
        <mxCell id="CYRStoh-47A9DED7U8ka-15" value="" style="endArrow=classic;startArrow=classic;html=1;entryX=0.545;entryY=0;entryDx=0;entryDy=0;entryPerimeter=0;" edge="1" parent="1" target="CYRStoh-47A9DED7U8ka-16">
          <mxGeometry width="50" height="50" relative="1" as="geometry">
            <mxPoint x="210" y="290" as="sourcePoint" />
            <mxPoint x="210" y="340" as="targetPoint" />
            <Array as="points">
              <mxPoint x="210" y="320" />
            </Array>
          </mxGeometry>
        </mxCell>
        <mxCell id="CYRStoh-47A9DED7U8ka-16" value="" style="rounded=1;whiteSpace=wrap;html=1;" vertex="1" parent="1">
          <mxGeometry x="90" y="370" width="220" height="60" as="geometry" />
        </mxCell>
        <mxCell id="CYRStoh-47A9DED7U8ka-17" value="ハロヒロ" style="text;strokeColor=none;fillColor=none;html=1;fontSize=24;fontStyle=1;verticalAlign=middle;align=center;" vertex="1" parent="1">
          <mxGeometry x="150" y="380" width="100" height="40" as="geometry" />
        </mxCell>
      </root>
    </mxGraphModel>
  </diagram>
</mxfile>
